<?xml version="1.0" encoding="UTF-8"?>
<svg version="1.1" xmlns="http://www.w3.org/2000/svg" width="670" height="373">
<path d="M0 0 C15.19207567 5.92516971 30.28615254 9.52899296 46 3 C46.8146875 2.67515625 47.629375 2.3503125 48.46875 2.015625 C50.04864879 1.38171499 51.62281328 0.73308002 53.1875 0.0625 C61.74247908 -3.16938099 69.19705587 -4.52462356 78.375 -4.4375 C80.03208984 -4.42722778 80.03208984 -4.42722778 81.72265625 -4.41674805 C89.52156568 -4.26273112 95.96945019 -3.59056086 103 0 C103.83402344 0.42023438 104.66804687 0.84046875 105.52734375 1.2734375 C107.73117922 2.45215015 109.86521544 3.70170245 112 5 C113.010625 5.556875 114.02125 6.11375 115.0625 6.6875 C115.701875 7.120625 116.34125 7.55375 117 8 C117 8.66 117 9.32 117 10 C117.5878125 10.27457031 118.175625 10.54914063 118.78125 10.83203125 C120.92179523 11.95883235 122.64183946 13.14607137 124.5 14.6875 C125.0671875 15.14511719 125.634375 15.60273438 126.21875 16.07421875 C128.72233544 18.78094599 130.24656235 21.7584475 132 25 C131.16597656 25.58265625 130.33195313 26.1653125 129.47265625 26.765625 C115.4214894 36.87903189 106.3373219 49.72062084 102.5078125 66.77734375 C99.85234215 83.62936713 104.10514055 99.59136802 113 114 C116.56404204 118.59589448 120.14528431 122.76352287 125 126 C125 126.66 125 127.32 125 128 C125.9590625 128.3403125 125.9590625 128.3403125 126.9375 128.6875 C138.27272727 133.54545455 138.27272727 133.54545455 140 137 C135.72422365 150.71519518 127.37985292 165.33508737 119 177 C118.34 177 117.68 177 117 177 C116.63841797 178.06927734 116.63841797 178.06927734 116.26953125 179.16015625 C114.81348857 182.41721171 112.98649772 184.71347749 110.6875 187.4375 C108.25742132 190.31816379 105.87737793 193.16457173 103.625 196.1875 C96.34048441 203.99233813 87.13920329 210.28326419 76.3828125 211.23046875 C67.0319303 211.50861114 59.85425364 208.93854185 51.5 204.9375 C37.91330313 198.54842318 23.23201593 198.11169035 9 203 C5.39862694 204.4600161 1.85921484 205.98412145 -1.67578125 207.59765625 C-11.23865543 211.63181821 -21.07336678 212.76932256 -30.91015625 208.98046875 C-36.88092148 206.17923123 -42.16594891 202.47149725 -47 198 C-47 197.34 -47 196.68 -47 196 C-47.99 195.67 -48.98 195.34 -50 195 C-50 194.34 -50 193.68 -50 193 C-50.66 193 -51.32 193 -52 193 C-53.2175293 191.70581055 -53.2175293 191.70581055 -54.57421875 189.88671875 C-55.07324707 189.22196533 -55.57227539 188.55721191 -56.08642578 187.87231445 C-56.61478027 187.15132568 -57.14313477 186.43033691 -57.6875 185.6875 C-58.23132324 184.94910889 -58.77514648 184.21071777 -59.33544922 183.44995117 C-60.90171719 181.30795244 -62.45392463 179.15660394 -64 177 C-64.65871094 176.08476562 -65.31742188 175.16953125 -65.99609375 174.2265625 C-72.12525535 165.14305682 -76.45377971 154.93788824 -81 145 C-81.36295166 144.21931152 -81.72590332 143.43862305 -82.09985352 142.63427734 C-84.31166109 137.79974228 -86.10475391 132.98623745 -87.5625 127.875 C-87.77229492 127.14853271 -87.98208984 126.42206543 -88.19824219 125.67358398 C-96.43197174 96.47175501 -98.52653398 61.82629453 -84.1875 34.125 C-73.44072399 15.81161638 -57.61444753 2.36885455 -37.12084961 -3.54199219 C-25.00521073 -6.15842347 -11.35045523 -4.507401 0 0 Z " fill="#020202" transform="translate(312,116)"/>
<path d="M0 0 C1.93912887 1.93912887 1.17477774 5.43519269 1.1875 8 C1.16797503 13.92722406 0.78629183 19.33490305 -1 25 C-1.38478516 26.30517578 -1.38478516 26.30517578 -1.77734375 27.63671875 C-4.06480806 34.67582565 -7.43465542 40.20626821 -12 46 C-12.5465625 46.69996094 -13.093125 47.39992187 -13.65625 48.12109375 C-23.79908087 60.39296224 -35.4514683 66.75283294 -51.12890625 68.93359375 C-52.07636719 68.95550781 -53.02382813 68.97742188 -54 69 C-56.36785105 66.63214895 -56.70795931 64.92827082 -57.015625 61.64453125 C-56.94092434 49.00144539 -51.93313647 38.78873022 -46 28 C-45.67 27.34 -45.34 26.68 -45 26 C-44.34 26 -43.68 26 -43 26 C-42.7628125 25.26394531 -42.525625 24.52789062 -42.28125 23.76953125 C-40.8023873 20.57284328 -39.15624763 18.97721996 -36.5 16.6875 C-35.7059375 15.99011719 -34.911875 15.29273438 -34.09375 14.57421875 C-32 13 -32 13 -30 13 C-30 12.34 -30 11.68 -30 11 C-21.72653146 5.02379234 -10.51784946 -0.95616813 0 0 Z " fill="#0C0C0C" transform="translate(386,46)"/>
</svg>
