<?xml version="1.0" encoding="UTF-8"?>
<svg version="1.1" xmlns="http://www.w3.org/2000/svg" width="3840" height="2160">
<path d="M0 0 C3.80759871 0.01350706 7.61508217 0.00814064 11.42269421 0.00313759 C34.25968085 -0.01952877 56.94333458 0.53284447 79.71392822 2.3225708 C80.68628418 2.39809174 81.65864014 2.47361267 82.66046143 2.55142212 C88.16505752 2.98975525 93.65888514 3.50383897 99.15142822 4.0725708 C99.96135223 4.15493988 100.77127625 4.23730896 101.60574341 4.32217407 C136.24927069 7.87296014 171.49871524 12.4025077 205.42877197 20.4006958 C209.06572674 21.24824833 212.70813759 21.75393475 216.40924072 22.24835205 C223.5913291 23.23928379 230.55487765 24.77028502 237.58892822 26.5100708 C238.84342773 26.81686768 240.09792725 27.12366455 241.39044189 27.4397583 C252.27112284 30.13841501 263.02257149 33.20202792 273.75494385 36.43438721 C278.92128868 37.98514319 284.09901542 39.4967677 289.27642822 41.0100708 C290.20302246 41.28335205 291.1296167 41.5566333 292.08428955 41.8381958 C297.34155378 43.37922236 302.6128003 44.81855064 307.91705322 46.1897583 C315.34831871 48.15925829 322.5998578 50.52204571 329.85821533 53.04937744 C331.90871133 53.76260409 333.96240721 54.46595814 336.0166626 55.16827393 C344.04504296 57.93174062 351.90609148 60.9823802 359.71392822 64.3225708 C361.91712458 65.21042605 364.12430977 66.08860269 366.33892822 66.9475708 C367.32119385 67.33171143 368.30345947 67.71585205 369.31549072 68.1116333 C371.09474312 68.74561979 372.88182642 69.36798319 374.70513916 69.86114502 C382.93021211 72.08722916 390.55186594 75.61946741 398.29986572 79.11016846 C400.70588143 80.19394617 403.11573521 81.26877436 405.52642822 82.34210205 C412.68318743 85.53921638 419.80791914 88.75139703 426.75640869 92.3862915 C428.75380501 93.34164382 430.71662646 94.01213445 432.83892822 94.6350708 C440.16474175 96.94039674 446.92003583 100.79095661 453.71392822 104.3225708 C454.53973389 104.75118408 455.36553955 105.17979736 456.21636963 105.62139893 C471.36526726 113.50123437 471.36526726 113.50123437 475.49127197 116.01397705 C477.6668816 117.294872 479.70951972 118.12103943 482.08892822 118.9475708 C488.08342018 121.27777391 493.35646897 124.58000799 498.81158447 127.9397583 C503.72500059 130.96548557 508.75540148 133.77488453 513.78814697 136.5960083 C516.71392822 138.3225708 516.71392822 138.3225708 518.67095947 139.8616333 C521.47372168 141.86590303 524.55048902 142.96777885 527.71392822 144.3225708 C529.86932677 145.60618284 531.99382069 146.94274211 534.08892822 148.3225708 C534.67545166 148.7055835 535.2619751 149.08859619 535.86627197 149.48321533 C537.81854022 150.75840516 539.7661549 152.04052757 541.71392822 153.3225708 C543.96402856 154.79704949 546.2158528 156.26877163 548.47027588 157.7366333 C549.93302356 158.68909055 551.39374201 159.64467373 552.85211182 160.6038208 C556.71023654 163.11890997 560.58789938 165.26528698 564.71392822 167.3225708 C566.40889174 168.46931955 568.07554486 169.65884325 569.71392822 170.8850708 C574.71803776 174.59359582 579.76900859 178.22539864 584.85455322 181.82086182 C587.3895887 183.62247473 589.86001915 185.44393865 592.25299072 187.4319458 C594.93839752 189.49502023 597.68329468 190.82283569 600.71392822 192.3225708 C607.06291043 196.67082332 612.99087964 201.52114276 618.83892822 206.5100708 C623.24295146 210.24769579 627.64698298 213.27754791 632.75299072 215.9710083 C635.03304409 217.54251919 635.50161739 218.88825065 636.71392822 221.3225708 C638.02119703 222.03899978 639.36021236 222.6983308 640.71392822 223.3225708 C642.53493827 224.72271297 644.32427935 226.16453007 646.08892822 227.6350708 C647.53912354 228.83583252 647.53912354 228.83583252 649.01861572 230.06085205 C650.57134921 231.36379798 652.12046064 232.67114378 653.65924072 233.99053955 C656.03880533 236.02931224 657.69903159 237.31760526 660.71392822 238.3225708 C662.41657919 239.95245891 664.07696344 241.62672239 665.71392822 243.3225708 C667.83647675 245.34780467 669.99419863 247.33438727 672.15142822 249.3225708 C672.69863525 249.83046143 673.24584229 250.33835205 673.80963135 250.8616333 C676.51665738 253.36042656 679.2478778 255.76957937 682.12408447 258.0725708 C682.97873291 258.8150708 683.83338135 259.5575708 684.71392822 260.3225708 C684.71392822 260.9825708 684.71392822 261.6425708 684.71392822 262.3225708 C685.44998291 262.56620361 686.1860376 262.80983643 686.94439697 263.06085205 C690.04873019 264.47509694 691.69678254 266.03562082 694.02642822 268.5100708 C696.924213 271.51893732 699.84162131 274.36905001 703.02642822 277.0725708 C705.98650892 279.60812126 708.27678099 282.27613676 710.71392822 285.3225708 C711.82250662 286.32029136 712.9502925 287.29679459 714.08892822 288.2600708 C720.11192647 293.39833484 725.58360481 299.1150177 731.14703369 304.73907471 C734.50758076 308.13522744 737.89520165 311.50214425 741.30767822 314.8460083 C742.60985362 316.12976909 743.91193512 317.41362513 745.21392822 318.6975708 C745.86490479 319.33178955 746.51588135 319.9660083 747.18658447 320.6194458 C751.21417582 324.60635441 754.48779779 328.66838621 757.71392822 333.3225708 C759.36778055 334.67176612 761.03563022 336.00390808 762.71392822 337.3225708 C765.1551428 339.89538724 767.4204614 342.61820864 769.71392822 345.3225708 C770.62334209 346.38180238 771.53355534 347.44034797 772.44439697 348.49835205 C775.54266518 352.09924858 778.62923648 355.71004326 781.71392822 359.3225708 C782.21037842 359.90297119 782.70682861 360.48337158 783.21832275 361.08135986 C788.36539093 367.10310441 793.41576618 373.16254018 798.22174072 379.4631958 C799.83865239 381.54712499 799.83865239 381.54712499 802.46392822 384.0725708 C804.71392822 386.3225708 804.71392822 386.3225708 806.03424072 388.5491333 C808.05636797 391.88799456 810.41195597 394.90027404 812.83892822 397.9475708 C813.32321289 398.56148682 813.80749756 399.17540283 814.30645752 399.80792236 C817.319867 403.61506223 820.40543443 407.3528125 823.52642822 411.0725708 C826.89129889 415.14740531 829.5893604 419.31174526 832.21002197 423.88897705 C833.75540103 426.38968135 835.45899076 428.5643297 837.33892822 430.8225708 C846.66952449 442.18925544 854.23569129 455.07766409 862.20001221 467.4151001 C864.8604389 471.52483666 867.56316128 475.56422385 870.46392822 479.5100708 C873.98016899 484.41017861 876.61990196 489.73023348 879.37677002 495.07843018 C881.90632657 499.93811095 884.69803585 504.36875527 887.95220947 508.7835083 C890.91376078 513.05181949 893.38067658 517.59338338 895.91705322 522.12335205 C897.03715101 524.11761311 898.18392783 526.09740506 899.37017822 528.05303955 C900.72869308 530.34750796 901.70211364 532.6942158 902.72564697 535.1506958 C904.48568507 539.01860561 906.57894865 542.71038486 908.61236572 546.4397583 C911.52642738 551.79586581 914.33923074 557.20575527 917.16143799 562.61065674 C919.0020382 566.12322446 920.86171901 569.60432667 922.87408447 573.02178955 C924.57644645 576.07592092 925.8052006 578.96980318 926.96392822 582.2600708 C929.14966267 588.11998462 931.77492273 593.59664563 934.62213135 599.15045166 C937.41687942 604.63534213 939.91819046 610.2136989 942.34136963 615.87115479 C943.7760408 619.21219835 945.26089791 622.48503635 946.96392822 625.6975708 C948.31061427 628.30677501 949.18946097 630.80342492 949.96392822 633.6350708 C951.33827803 638.48915737 953.21908322 643.01305996 955.21392822 647.6350708 C963.91084568 667.94430298 971.32508202 688.51943866 977.61578369 709.69024658 C978.84460634 713.75481381 980.11863964 717.80337553 981.40533447 721.84991455 C981.63993881 722.58781219 981.87454315 723.32570984 982.11625671 724.08596802 C982.35288528 724.83016998 982.58951385 725.57437195 982.83331299 726.34112549 C986.620067 738.2521852 990.35468465 750.17555443 993.77642822 762.1975708 C994.0510791 763.14575684 994.32572998 764.09394287 994.60870361 765.07086182 C996.27172208 771.03279628 997.30220282 776.93955244 998.18389893 783.06231689 C999.04513976 788.35988029 1000.43631144 793.5046661 1001.77642822 798.6975708 C1012.36600313 841.40176819 1020.04992591 885.47862225 1022.47662354 929.43634033 C1022.75499602 933.99511933 1023.10132936 938.54655442 1023.45611572 943.09991455 C1025.2154753 965.84255884 1026.42043507 988.51326096 1026.71392822 1011.3225708 C1026.72488525 1012.09069092 1026.73584229 1012.85881104 1026.74713135 1013.65020752 C1027.220846 1047.31877954 1025.91353191 1080.85496877 1022.76739502 1114.38214111 C1022.1977655 1120.49278072 1021.68233976 1126.57062197 1021.41485596 1132.70077515 C1020.898798 1144.20731433 1019.35282256 1155.50043641 1017.65142822 1166.8850708 C1017.49842255 1167.92215179 1017.34541687 1168.95923279 1017.18777466 1170.02774048 C1012.87097404 1199.16385215 1007.16435824 1227.9813307 1000.41534424 1256.64801025 C998.91855716 1263.01006519 997.49149942 1269.36676477 996.26470947 1275.78741455 C994.66605057 1283.9086655 992.50821642 1291.81377369 990.21392822 1299.7600708 C990.00138397 1300.5037088 989.78883972 1301.2473468 989.56985474 1302.01351929 C985.93042706 1314.71485387 981.83213182 1327.22666887 977.38189697 1339.66607666 C975.4138884 1345.20364811 973.55569889 1350.66286014 972.20220947 1356.3850708 C970.61255521 1363.08955639 968.26888357 1369.44532428 965.83892822 1375.8850708 C965.41740479 1377.02653564 964.99588135 1378.16800049 964.56158447 1379.34405518 C962.20390403 1385.65643814 959.65025167 1391.81551218 956.81207275 1397.92633057 C955.4448026 1400.90982468 954.2449637 1403.9391058 953.08892822 1407.0100708 C952.7047876 1408.02456299 952.32064697 1409.03905518 951.92486572 1410.08428955 C951.28600816 1411.79271832 950.64757186 1413.50130785 950.01275635 1415.21124268 C945.26901395 1427.94837777 939.95342691 1440.24268847 933.71392822 1452.3225708 C927.8839078 1463.37373693 927.8839078 1463.37373693 923.53033447 1475.04644775 C922.58604195 1477.67911497 921.34886429 1479.98474401 919.98736572 1482.42803955 C919.44998779 1483.39830078 918.91260986 1484.36856201 918.35894775 1485.3682251 C917.81609131 1486.34315918 917.27323486 1487.31809326 916.71392822 1488.3225708 C915.75932641 1490.06134417 914.80615522 1491.80090388 913.85455322 1493.5413208 C913.1487915 1494.83030273 913.1487915 1494.83030273 912.42877197 1496.14532471 C911.94537354 1497.02881592 911.4619751 1497.91230713 910.96392822 1498.8225708 C910.44443604 1499.7718042 909.92494385 1500.7210376 909.38970947 1501.69903564 C906.50841165 1506.97994734 903.68004839 1512.28263114 900.91607666 1517.62579346 C895.72722587 1527.64731479 890.03126612 1537.29632949 884.16021729 1546.93096924 C881.92874473 1550.62095997 879.7610756 1554.34747575 877.58892822 1558.0725708 C874.18417895 1563.87618321 870.73563117 1569.65159001 867.21392822 1575.3850708 C866.79224365 1576.08277588 866.37055908 1576.78048096 865.93609619 1577.49932861 C864.91727898 1579.14263608 863.82257838 1580.73848028 862.71392822 1582.3225708 C862.05392822 1582.3225708 861.39392822 1582.3225708 860.71392822 1582.3225708 C860.48705322 1583.0031958 860.26017822 1583.6838208 860.02642822 1584.3850708 C858.93328891 1586.8316207 857.9141745 1588.52181734 856.33892822 1590.6350708 C854.00765617 1593.77543139 852.31317624 1597.00608802 850.62017822 1600.52178955 C849.53432471 1602.67945536 848.34818846 1604.53974145 846.71392822 1606.3225708 C846.05392822 1606.3225708 845.39392822 1606.3225708 844.71392822 1606.3225708 C844.50252197 1606.97999268 844.29111572 1607.63741455 844.07330322 1608.3147583 C842.2142914 1612.42808907 839.63969664 1615.82750595 836.96392822 1619.4475708 C836.39190674 1620.22874268 835.81988525 1621.00991455 835.23052979 1621.8147583 C834.01623742 1623.47163088 832.79970832 1625.12686619 831.58111572 1626.78057861 C829.72755195 1629.30402343 827.89083708 1631.83896269 826.05767822 1634.3772583 C820.53617901 1641.99208955 815.03417321 1649.34936887 808.58892822 1656.20928955 C806.17099576 1658.93450093 804.27879817 1661.87468476 802.32330322 1664.9397583 C799.14380937 1669.64726134 795.59311151 1674.17184469 791.71392822 1678.3225708 C791.05392822 1678.3225708 790.39392822 1678.3225708 789.71392822 1678.3225708 C789.44709229 1678.89878174 789.18025635 1679.47499268 788.90533447 1680.06866455 C786.7219889 1684.19912487 783.62723841 1687.68781707 780.71392822 1691.3225708 C779.95982666 1692.27647705 779.2057251 1693.2303833 778.42877197 1694.2131958 C777.65662354 1695.17741455 776.8844751 1696.1416333 776.08892822 1697.1350708 C775.01771729 1698.47505127 775.01771729 1698.47505127 773.92486572 1699.84210205 C771.69649917 1702.3421246 769.34606678 1704.26318559 766.71392822 1706.3225708 C765.53159339 1707.53810294 764.38325719 1708.787906 763.27642822 1710.0725708 C762.37150635 1711.12251221 762.37150635 1711.12251221 761.44830322 1712.19366455 C759.87602931 1714.12359536 758.45053171 1716.09525198 757.02642822 1718.1350708 C753.91741636 1722.38906821 750.08537482 1725.76034419 746.17706299 1729.2510376 C741.98127541 1733.0158182 738.31465649 1736.99997816 734.71392822 1741.3225708 C729.72610968 1747.1637025 724.58811844 1752.37938432 718.71392822 1757.3225708 C714.3047597 1761.09096051 710.05345491 1764.79200052 706.33892822 1769.2600708 C703.67036237 1772.41828176 700.83015469 1774.9433192 697.58892822 1777.5100708 C693.15253961 1781.02398189 689.20411353 1784.7683749 685.27642822 1788.8225708 C680.30166252 1793.93383469 675.18114695 1798.261553 669.37017822 1802.42022705 C665.85230923 1804.93964205 662.52528623 1807.5112128 659.46392822 1810.5725708 C653.69590293 1816.34059609 647.80778066 1821.37840077 640.94049072 1825.77960205 C638.63726815 1827.37569489 636.6469678 1829.11004549 634.58892822 1831.0100708 C629.0348062 1836.07581313 622.96830399 1840.3628438 616.87945557 1844.75274658 C613.76893296 1847.00761246 610.6818675 1849.29375663 607.59356689 1851.57891846 C603.64039087 1854.50260098 599.67759989 1857.41314147 595.71392822 1860.3225708 C595.07036377 1860.79614014 594.42679932 1861.26970947 593.76373291 1861.75762939 C586.45099812 1867.12464734 578.98849401 1872.10193379 571.2588501 1876.85040283 C567.25414606 1879.3204933 563.47654689 1881.92214464 559.76861572 1884.8225708 C553.42056688 1889.45688783 546.48146858 1893.36283897 539.63580322 1897.20928955 C532.75872456 1901.19296317 526.03579046 1905.44969554 519.40142822 1909.8225708 C514.4485061 1912.99788846 509.30844892 1915.56878657 504.02789307 1918.13775635 C499.05013772 1920.58595659 494.27871415 1923.27630443 489.52642822 1926.1350708 C483.04307829 1930.0205337 476.46463807 1933.67593163 469.77642822 1937.1975708 C468.92476074 1937.64979004 468.07309326 1938.10200928 467.19561768 1938.56793213 C462.24628142 1941.15071799 457.26307866 1943.35955331 452.06036377 1945.37969971 C448.63613111 1946.75566335 445.36959348 1948.38789328 442.08892822 1950.0725708 C440.71004387 1950.77053073 439.33113693 1951.46844604 437.95220947 1952.1663208 C437.25563232 1952.52081299 436.55905518 1952.87530518 435.84136963 1953.24053955 C410.84657691 1965.95306208 410.84657691 1965.95306208 401.36627197 1968.4163208 C399.07046757 1969.20074881 397.10254593 1970.0987336 394.95220947 1971.20147705 C390.72723462 1973.36663448 386.40223153 1975.08598236 381.96392822 1976.7600708 C380.37236331 1977.36965482 378.78121746 1977.98033411 377.19049072 1978.59210205 C376.4238208 1978.88681396 375.65715088 1979.18152588 374.86724854 1979.48516846 C369.10087791 1981.72764592 363.39818893 1984.13895978 357.73736572 1986.6350708 C356.73963135 1987.0681958 355.74189697 1987.5013208 354.71392822 1987.9475708 C353.84767822 1988.33171143 352.98142822 1988.71585205 352.08892822 1989.1116333 C349.22709976 1990.13844675 346.52576706 1990.8624657 343.57330322 1991.5491333 C335.41678552 1993.52795576 327.56918797 1996.36729803 319.65441895 1999.13372803 C307.12130305 2003.50714035 294.58554145 2007.85707756 281.83892822 2011.5725708 C280.49943115 2011.96654053 280.49943115 2011.96654053 279.13287354 2012.36846924 C275.00828029 2013.53898338 270.92595765 2014.49426556 266.69830322 2015.20928955 C261.88615593 2016.04204785 257.19536278 2017.16448082 252.47174072 2018.38897705 C251.71508621 2018.58495987 250.9584317 2018.78094269 250.17884827 2018.98286438 C248.57227058 2019.39958446 246.96575075 2019.81652767 245.35928345 2020.2336731 C229.29760098 2024.38489075 213.17255071 2028.02779313 196.90142822 2031.2600708 C195.97614319 2031.44498077 195.05085815 2031.62989075 194.09753418 2031.82040405 C184.57771599 2033.71489049 175.04588713 2035.48929966 165.46002197 2037.0178833 C164.71181686 2037.13755966 163.96361176 2037.25723602 163.19273376 2037.38053894 C156.33661913 2038.44236255 149.4524528 2039.09387487 142.54595947 2039.7288208 C137.49770377 2040.21916695 132.47057478 2040.84055649 127.43920898 2041.47949219 C113.05058212 2043.30619798 98.67348642 2044.85720638 84.21392822 2046.0100708 C83.4582254 2046.07064667 82.70252258 2046.13122253 81.92391968 2046.19363403 C65.55482686 2047.49371203 49.19155529 2048.44314266 32.77642822 2048.8850708 C32.01515625 2048.90558502 31.25388428 2048.92609924 30.46954346 2048.94723511 C25.21795072 2049.08594074 19.9661085 2049.20850757 14.71392822 2049.3225708 C13.62064209 2049.34738525 12.52735596 2049.37219971 11.40093994 2049.39776611 C-34.24063307 2050.29195599 -80.07328904 2046.86946003 -125.31195068 2041.03619385 C-126.94649301 2040.82649292 -128.58109467 2040.61725388 -130.21575928 2040.4085083 C-131.00619629 2040.30756363 -131.7966333 2040.20661896 -132.61102295 2040.10261536 C-137.1938751 2039.53351695 -141.75158971 2039.12755443 -146.36419678 2038.8616333 C-154.74401957 2038.32416964 -162.91310224 2036.83703783 -171.16107178 2035.3225708 C-172.40549042 2035.0974733 -172.40549042 2035.0974733 -173.67504883 2034.86782837 C-192.58409151 2031.43690234 -211.31339874 2027.23758379 -230.02099609 2022.8526001 C-232.35847862 2022.30562755 -234.69695512 2021.76305899 -237.0355835 2021.2210083 C-238.56182068 2020.86568024 -240.08802634 2020.51021669 -241.61419678 2020.15460205 C-242.65536148 2019.91378654 -242.65536148 2019.91378654 -243.71755981 2019.66810608 C-248.21097559 2018.61615124 -252.59367701 2017.34817682 -256.99310303 2015.96368408 C-259.43608796 2015.28062633 -261.84528851 2014.84714988 -264.34857178 2014.4397583 C-270.33549612 2013.37446573 -276.08953474 2011.81654117 -281.91107178 2010.0725708 C-283.03118652 2009.73975098 -284.15130127 2009.40693115 -285.30535889 2009.06402588 C-298.3810373 2005.10246305 -311.28814122 2000.6304585 -324.19671631 1996.15948486 C-325.89443668 1995.57182286 -327.5921897 1994.98425517 -329.28997803 1994.39678955 C-330.1032103 1994.11508408 -330.91644257 1993.8333786 -331.75431824 1993.5431366 C-335.70178763 1992.18326846 -339.64665533 1990.88049432 -343.66107178 1989.7288208 C-349.8315956 1987.93889274 -355.75841031 1985.50724867 -361.72357178 1983.1350708 C-362.95116211 1982.6503833 -364.17875244 1982.1656958 -365.44354248 1981.6663208 C-373.39821172 1978.51716353 -381.31336841 1975.28086428 -389.16082764 1971.87261963 C-392.56974681 1970.4038597 -395.94317802 1969.0911393 -399.48919678 1967.99053955 C-405.70833909 1965.96849973 -411.487359 1963.00796464 -417.34857178 1960.1350708 C-418.55840796 1959.54724402 -419.76845218 1958.9598452 -420.97869873 1958.37286377 C-427.97304921 1954.97408988 -434.93247113 1951.50944162 -441.8649292 1947.98638916 C-445.44388828 1946.18531881 -449.06065098 1944.5418025 -452.75628662 1942.99542236 C-461.03926342 1939.52595707 -468.9373111 1935.4449694 -476.84857178 1931.1975708 C-478.52668945 1930.3001416 -478.52668945 1930.3001416 -480.2387085 1929.38458252 C-484.73772312 1926.94346182 -489.15064699 1924.53917159 -493.27825928 1921.5022583 C-495.8953836 1919.60569289 -497.82158566 1918.54727116 -500.84857178 1917.5725708 C-505.81265751 1915.69708414 -510.00638928 1913.08167556 -514.42034912 1910.15679932 C-519.51697462 1906.78623278 -524.72008324 1903.62967751 -529.97357178 1900.5100708 C-543.25803452 1892.58224626 -556.47728479 1884.69330356 -568.71966553 1875.20928955 C-571.73654796 1872.99139882 -574.87364057 1871.27874013 -578.17669678 1869.5335083 C-581.16128558 1867.82013325 -583.73908444 1865.71136758 -586.41888428 1863.56085205 C-590.40866592 1860.44621325 -594.49952871 1857.4787507 -598.59857178 1854.5100708 C-599.38804199 1853.93450439 -600.17751221 1853.35893799 -600.99090576 1852.76593018 C-601.74444336 1852.22130127 -602.49798096 1851.67667236 -603.27435303 1851.11553955 C-604.2881604 1850.38113647 -604.2881604 1850.38113647 -605.32244873 1849.63189697 C-607.25016742 1848.3465115 -609.19267788 1847.31039561 -611.28607178 1846.3225708 C-611.28607178 1845.6625708 -611.28607178 1845.0025708 -611.28607178 1844.3225708 C-611.86945313 1844.04711426 -612.45283447 1843.77165771 -613.05389404 1843.487854 C-616.73150938 1841.56799641 -619.91787159 1839.00215289 -623.22357178 1836.5100708 C-623.92675537 1835.98864502 -624.62993896 1835.46721924 -625.35443115 1834.92999268 C-629.31022602 1831.96036597 -632.8061593 1828.85023508 -636.28607178 1825.3225708 C-637.75692924 1824.24014401 -639.25776786 1823.19724905 -640.78607178 1822.1975708 C-645.19195337 1819.18266995 -649.32331714 1815.93630765 -653.41107178 1812.5100708 C-653.99179443 1812.02973389 -654.57251709 1811.54939697 -655.1708374 1811.05450439 C-656.5831379 1809.8567682 -657.94025662 1808.59455597 -659.28607178 1807.3225708 C-659.28607178 1806.6625708 -659.28607178 1806.0025708 -659.28607178 1805.3225708 C-659.84294678 1805.0750708 -660.39982178 1804.8275708 -660.97357178 1804.5725708 C-663.69706674 1803.10041136 -665.88250891 1801.27436268 -668.28607178 1799.3225708 C-669.06724365 1798.71800049 -669.84841553 1798.11343018 -670.65325928 1797.49053955 C-677.28697027 1792.25176779 -683.21190945 1786.54971142 -689.07073975 1780.46392822 C-692.29656094 1777.148286 -695.22074549 1774.59721765 -699.28607178 1772.3225708 C-701.27825928 1770.56085205 -701.27825928 1770.56085205 -703.16107178 1768.6350708 C-704.08532959 1767.70114502 -704.08532959 1767.70114502 -705.02825928 1766.74835205 C-706.92693086 1764.70842982 -708.73983868 1762.62994833 -710.55169678 1760.51397705 C-714.16865428 1756.35886802 -718.0914967 1752.65257467 -722.16107178 1748.9475708 C-727.50185454 1744.02284168 -732.51945398 1739.00481202 -737.28216553 1733.5100708 C-739.32761974 1731.2772163 -741.48091225 1729.34623568 -743.78607178 1727.3850708 C-748.07639561 1723.6831768 -751.50825877 1719.55485475 -755.02825928 1715.1272583 C-760.18952244 1708.71586219 -765.80071508 1702.74983668 -771.65716553 1696.97491455 C-775.09870107 1693.48386052 -778.33667149 1689.91756328 -780.84857178 1685.6975708 C-782.25568004 1683.37278324 -783.85207966 1681.76961532 -785.77703857 1679.87921143 C-788.84494605 1676.71451671 -791.6070281 1673.28239108 -794.41107178 1669.8850708 C-795.03111084 1669.14708252 -795.6511499 1668.40909424 -796.28997803 1667.64874268 C-799.57342683 1663.6768288 -801.98368848 1659.94684912 -804.28607178 1655.3225708 C-805.92667887 1653.6302458 -807.59811605 1651.96767293 -809.28607178 1650.3225708 C-811.80186332 1647.32068446 -814.19964215 1644.23070296 -816.59857178 1641.1350708 C-817.24374756 1640.31587158 -817.88892334 1639.49667236 -818.5536499 1638.65264893 C-819.16273193 1637.86954346 -819.77181396 1637.08643799 -820.39935303 1636.27960205 C-820.95405273 1635.56779785 -821.50875244 1634.85599365 -822.08026123 1634.12261963 C-823.28607178 1632.3225708 -823.28607178 1632.3225708 -823.28607178 1630.3225708 C-823.94607178 1630.3225708 -824.60607178 1630.3225708 -825.28607178 1630.3225708 C-826.40716553 1628.66241455 -826.40716553 1628.66241455 -827.72357178 1626.2600708 C-830.43790701 1621.57469018 -833.44170494 1617.2285736 -836.66107178 1612.8850708 C-837.13609131 1612.24295654 -837.61111084 1611.60084229 -838.1005249 1610.93927002 C-840.26843382 1608.01791663 -842.44867378 1605.10612887 -844.63372803 1602.1975708 C-850.30397753 1594.56658082 -850.30397753 1594.56658082 -852.16107178 1590.5100708 C-854.29513953 1585.88310974 -857.36326127 1581.92292611 -860.35614014 1577.82965088 C-864.05811801 1572.73286328 -867.36577351 1567.47096163 -870.59466553 1562.0647583 C-872.174941 1559.3933836 -872.174941 1559.3933836 -873.81341553 1557.3538208 C-875.73284801 1554.70632773 -877.01154108 1551.90213561 -878.41107178 1548.9475708 C-880.88496313 1543.85123416 -883.60738474 1539.05262876 -886.72357178 1534.3225708 C-893.37296002 1524.20271176 -899.12119941 1513.90290377 -904.15447998 1502.90118408 C-906.54220836 1497.74185186 -909.20636495 1492.8134629 -912.03607178 1487.8850708 C-918.06409529 1477.32220391 -922.98266582 1466.25919678 -927.98626709 1455.18487549 C-929.57214355 1451.6926111 -931.20599155 1448.22599367 -932.84857178 1444.7600708 C-935.98303281 1438.04226295 -939.02147878 1431.28245309 -942.03607178 1424.5100708 C-942.50859375 1423.4594043 -942.98111572 1422.40873779 -943.46795654 1421.32623291 C-945.87408654 1415.88694172 -947.90468063 1410.54358002 -949.52093506 1404.82281494 C-950.97351165 1400.07621733 -952.95612071 1395.53213136 -954.84857178 1390.9475708 C-963.06935901 1370.65829133 -970.27716904 1350.1472502 -976.30169678 1329.09991455 C-977.59296877 1324.60694407 -978.96952657 1320.14966056 -980.39775085 1315.69900513 C-983.63082232 1305.61894147 -986.54288347 1295.47814111 -989.27362061 1285.2510376 C-989.97661471 1282.62369827 -990.69058644 1279.99950145 -991.4052124 1277.37530518 C-993.80030987 1268.49999491 -995.90503011 1259.68324389 -997.5055542 1250.62799072 C-998.42003633 1245.47404525 -999.49339201 1240.35397837 -1000.55560303 1235.2288208 C-1005.78311581 1209.84610063 -1010.55505555 1184.50308341 -1013.95532227 1158.80792236 C-1014.29216905 1156.27675409 -1014.63786769 1153.7469058 -1014.98480225 1151.21710205 C-1027.00349108 1062.83579364 -1025.50528344 968.66203205 -999.01524353 807.44230652 C-997.87507119 802.15397065 -996.79334747 796.85849428 -995.7636261 791.54759216 C-993.79454769 781.41394644 -991.39285339 771.46353816 -988.66107178 761.5100708 C-988.44908142 760.72895935 -988.23709106 759.9478479 -988.01867676 759.14306641 C-984.600772 746.56925439 -980.81838576 734.14112326 -976.68597412 721.78424072 C-974.69026844 715.80335248 -972.85638767 709.83753329 -971.27435303 703.73272705 C-969.48889609 696.88345184 -967.29515589 690.27338451 -964.84857178 683.6350708 C-964.29459717 682.09883057 -964.29459717 682.09883057 -963.72943115 680.53155518 C-961.45166897 674.27461746 -958.99133972 668.11601345 -956.4039917 661.98101807 C-953.63009129 655.38459929 -951.00943428 648.70884713 -948.84857178 641.8850708 C-944.48123389 628.49027471 -937.85028672 615.7368682 -931.75872803 603.0569458 C-931.31883545 602.13921387 -930.87894287 601.22148193 -930.42572021 600.27593994 C-929.56617182 598.48458163 -928.7037251 596.69460995 -927.83782959 594.90631104 C-925.85696296 590.7800342 -923.99450037 586.6592869 -922.34466553 582.38897705 C-920.12882845 576.74198832 -917.3722472 571.42914037 -914.53607178 566.0725708 C-914.00820068 565.06621582 -913.48032959 564.05986084 -912.9364624 563.02301025 C-909.99729578 557.45031811 -906.97218204 551.94492733 -903.78607178 546.5100708 C-901.60645083 542.77741399 -899.73120805 539.18487201 -898.22357178 535.1350708 C-896.49297378 530.50515927 -894.078394 526.64598187 -891.35638428 522.5335083 C-888.32754549 517.83595079 -885.54650979 512.99893741 -882.75042725 508.16021729 C-879.56025801 502.67462059 -879.56025801 502.67462059 -877.67669678 500.25616455 C-876.08024803 498.03638329 -875.13601532 495.69792167 -874.10296631 493.17755127 C-872.73627396 490.07410583 -870.99604451 487.27734874 -869.22357178 484.3850708 C-868.69666748 483.50238525 -868.69666748 483.50238525 -868.15911865 482.60186768 C-867.25971105 481.13799254 -866.27910434 479.72462315 -865.28607178 478.3225708 C-864.62607178 478.3225708 -863.96607178 478.3225708 -863.28607178 478.3225708 C-863.04759521 477.6419458 -862.80911865 476.9613208 -862.56341553 476.2600708 C-861.0143452 472.69768276 -858.98365042 469.55105806 -856.84857178 466.3225708 C-856.0575139 465.11469123 -855.26713646 463.90636573 -854.47747803 462.6975708 C-853.95456177 461.90479736 -853.95456177 461.90479736 -853.42108154 461.0960083 C-852.54585216 459.72847415 -851.70335768 458.3399529 -850.87518311 456.94342041 C-847.94415896 452.10941453 -844.6391748 447.52365127 -841.41107178 442.8850708 C-840.70337646 441.86091064 -839.99568115 440.83675049 -839.26654053 439.78155518 C-835.78436673 434.77228281 -832.23499614 429.96879593 -828.28607178 425.3225708 C-827.38160129 423.70744492 -826.47820647 422.09164382 -825.59075928 420.46710205 C-823.77742113 417.48649534 -821.73477307 414.68694828 -819.66107178 411.8850708 C-818.88505615 410.83448486 -818.10904053 409.78389893 -817.30950928 408.70147705 C-816.6417749 407.91643799 -815.97404053 407.13139893 -815.28607178 406.3225708 C-814.62607178 406.3225708 -813.96607178 406.3225708 -813.28607178 406.3225708 C-812.89741943 405.46985596 -812.89741943 405.46985596 -812.50091553 404.59991455 C-811.17356567 402.11166708 -809.61725759 400.07976266 -807.84857178 397.8850708 C-805.9965594 395.58505544 -804.31976428 393.38004624 -802.82513428 390.8303833 C-801.15610589 388.11079897 -799.27503245 385.96561718 -797.09857178 383.6350708 C-791.10276997 377.07564418 -785.59142326 370.30205182 -780.59857178 362.9475708 C-778.13292863 359.36320469 -775.78062769 356.94348773 -772.28607178 354.3225708 C-770.54623571 352.45971603 -768.8956276 350.53331217 -767.23919678 348.5960083 C-764.44859609 345.34774911 -761.56638688 342.18441137 -758.69232178 339.0100708 C-756.7979753 336.89430721 -754.92796743 334.76287065 -753.06561279 332.61920166 C-749.5845436 328.63974735 -746.02517687 324.74401788 -742.40716553 320.88897705 C-741.76621445 320.20598038 -741.12526337 319.5229837 -740.46488953 318.81929016 C-733.6065611 311.54868507 -726.57239017 304.45745629 -719.49481201 297.40093994 C-717.32182843 295.23339438 -715.15434815 293.0604458 -712.98724365 290.88702393 C-711.57805949 289.47849953 -710.16856572 288.0702848 -708.75872803 286.66241455 C-708.12523941 286.0269017 -707.49175079 285.39138885 -706.83906555 284.73661804 C-702.48221288 280.40221801 -697.94690559 276.32669278 -693.28607178 272.3225708 C-687.38851905 267.16657615 -687.38851905 267.16657615 -681.72357178 261.7600708 C-675.85397906 255.89047809 -669.36921005 250.72062956 -662.89935303 245.5335083 C-660.24408118 243.35388221 -660.24408118 243.35388221 -657.84075928 240.8460083 C-655.1060057 238.14470737 -652.17723268 235.85626368 -649.09857178 233.5725708 C-644.89558173 230.40782646 -640.90059585 227.15284975 -637.03607178 223.5725708 C-633.4304785 220.25728294 -629.77032772 217.48890231 -625.64935303 214.8538208 C-622.88725312 213.06416268 -620.21010163 211.17878566 -617.53607178 209.2600708 C-616.65435303 208.62971924 -615.77263428 207.99936768 -614.86419678 207.34991455 C-612.22419952 205.36041083 -612.22419952 205.36041083 -609.89154053 202.9006958 C-606.91148942 199.9519196 -603.75652585 197.55989065 -600.34857178 195.1350708 C-599.75366943 194.69743408 -599.15876709 194.25979736 -598.5458374 193.80889893 C-594.91837738 191.21219257 -591.64557722 189.5139471 -587.28607178 188.3225708 C-587.28607178 187.6625708 -587.28607178 187.0025708 -587.28607178 186.3225708 C-585.29827881 184.71856689 -585.29827881 184.71856689 -582.54388428 182.8460083 C-581.56032959 182.1756958 -580.5767749 181.5053833 -579.56341553 180.8147583 C-578.52314209 180.11608643 -577.48286865 179.41741455 -576.41107178 178.6975708 C-575.37853271 177.99116455 -574.34599365 177.2847583 -573.28216553 176.5569458 C-565.55186268 171.3225708 -565.55186268 171.3225708 -563.28607178 171.3225708 C-563.28607178 170.6625708 -563.28607178 170.0025708 -563.28607178 169.3225708 C-562.63122803 168.9822583 -561.97638428 168.6419458 -561.30169678 168.2913208 C-555.22252777 165.06283557 -549.49614326 161.53502764 -543.80169678 157.6741333 C-539.43043284 154.7280566 -534.98551821 151.89864031 -530.53607178 149.0725708 C-529.74394287 148.56516357 -528.95181396 148.05775635 -528.13568115 147.53497314 C-523.98337686 144.90546999 -519.824006 142.54211485 -515.40325928 140.39971924 C-511.03393884 138.17676701 -506.8657464 135.588872 -502.66107178 133.0725708 C-500.70567299 131.91185779 -498.749944 130.75170089 -496.79388428 129.59210205 C-492.92981084 127.29842433 -492.92981084 127.29842433 -489.06634521 125.00372314 C-482.92920928 121.37089058 -476.91183928 118.05267199 -470.21575928 115.56085205 C-461.06526946 111.69324502 -452.38497665 106.55376734 -443.66497803 101.81085205 C-436.79974718 98.0953994 -430.15859232 94.68069707 -422.73138428 92.1975708 C-420.27452792 91.31844009 -418.04201922 90.26716067 -415.72357178 89.0725708 C-397.82112798 79.85351707 -378.86774689 72.49479828 -359.84368896 65.96246338 C-353.89857518 63.9139965 -348.02488454 61.71736195 -342.16107178 59.4475708 C-326.31915972 53.3524572 -310.38292121 47.27077134 -293.82122803 43.45147705 C-288.94579062 42.28764839 -284.16306568 40.83070636 -279.36077881 39.39898682 C-264.7343256 35.04354163 -250.02272411 31.1115017 -235.22357178 27.3850708 C-234.28444946 27.14610077 -233.34532715 26.90713074 -232.37774658 26.66091919 C-222.85523023 24.24359929 -213.4705937 22.01959206 -203.70916748 20.79107666 C-199.85436486 20.26348475 -196.0472868 19.55822324 -192.23138428 18.8069458 C-191.53000336 18.66923767 -190.82862244 18.53152954 -190.10598755 18.38964844 C-188.63965862 18.10115177 -187.17341302 17.81223135 -185.70724487 17.5229187 C-124.43280708 5.50517733 -62.4253471 -0.3002319 0 0 Z " fill="#1877F2" transform="translate(1918.2860717773438,60.67742919921875)"/>
<path d="M0 0 C1.03882324 0.0825 2.07764648 0.165 3.14794922 0.25 C5.16296304 0.41218945 7.17764303 0.57860283 9.19189453 0.75 C14.99883297 1.22838334 20.79547621 1.5739207 26.61653137 1.80793762 C38.03930271 2.27753965 49.28998851 3.38394992 60.62890625 4.8125 C62.4670606 5.03891372 64.30527794 5.26481655 66.14355469 5.49023438 C69.80759975 5.9411882 73.47095701 6.39720975 77.13378906 6.85791016 C80.32516065 7.2592653 83.51698473 7.65604997 86.70996094 8.04443359 C87.40676971 8.12928513 88.10357849 8.21413666 88.82150269 8.30155945 C90.63728151 8.52215623 92.45315727 8.74195467 94.26904297 8.96166992 C110.72797309 11.0539068 126.84034408 13.76440631 143.25390625 16.5 C143.25390625 99.66 143.25390625 182.82 143.25390625 268.5 C71.50390625 268.875 71.50390625 268.875 48.95800781 268.97802734 C42.21236408 269.01799465 42.21236408 269.01799465 35.46673584 269.06045532 C32.49261903 269.07910999 29.51853044 269.09257893 26.54437256 269.10269165 C-10.16726174 269.2332176 -43.63419552 272.79187115 -77.23828125 288.8515625 C-79.55891189 289.94210385 -81.9120812 290.96613816 -84.29296875 291.91796875 C-87.96517943 293.60037297 -90.98814692 295.68277428 -94.12109375 298.1875 C-94.68054687 298.62666748 -95.24 299.06583496 -95.81640625 299.51831055 C-112.64635828 312.84765186 -127.29744823 328.53718054 -135.74609375 348.5 C-136.0711792 349.25522949 -136.39626465 350.01045898 -136.73120117 350.78857422 C-150.07065272 382.06797594 -152.9314164 413.46116379 -152.85961914 447.16845703 C-152.8593362 449.06271361 -152.85949708 450.95697029 -152.86006165 452.85122681 C-152.86034547 457.93265333 -152.8545166 463.01405566 -152.84748769 468.09547663 C-152.84118432 473.42854848 -152.84064488 478.76162104 -152.83946228 484.09469604 C-152.83636938 494.16640297 -152.82818382 504.23809888 -152.81811279 514.30980098 C-152.80688786 525.78762852 -152.80142521 537.26545661 -152.79641736 548.74328828 C-152.78599924 572.32886493 -152.7684398 595.91443184 -152.74609375 619.5 C-147.00007455 620.7316135 -141.3535363 620.63631148 -135.50857544 620.62025452 C-134.37230489 620.62110894 -133.23603433 620.62196337 -132.06533134 620.62284368 C-128.25594056 620.62449147 -124.44659376 620.61898852 -120.63720703 620.61352539 C-117.9072924 620.61268649 -115.17737863 620.61335756 -112.44746399 620.6139679 C-106.56911895 620.61449187 -100.69078502 620.61135824 -94.81244278 620.60573006 C-86.31338024 620.59759798 -77.81432307 620.59499808 -69.31525706 620.59374207 C-55.52559801 620.59155423 -41.73594489 620.58490142 -27.94628906 620.57543945 C-14.55208363 620.56625839 -1.15787982 620.55918095 12.23632812 620.55493164 C13.06214956 620.55466892 13.88797099 620.55440619 14.73881732 620.55413551 C18.88178124 620.55283046 23.02474517 620.55156675 27.16770911 620.55032361 C61.52977909 620.53995936 95.89184203 620.52234834 130.25390625 620.5 C129.81035218 630.70487135 129.359648 640.80245504 127.67504883 650.89208984 C127.51872986 651.87906357 127.36241089 652.86603729 127.20135498 653.88291931 C126.69308354 657.07717526 126.17094953 660.26898309 125.6484375 663.4609375 C125.28223802 665.7439726 124.91691664 668.0271487 124.55241394 670.31045532 C123.59520464 676.29144003 122.62613298 682.2704416 121.65441895 688.24908447 C120.68745497 694.21176136 119.73195798 700.1762731 118.77539062 706.140625 C116.16457683 722.39896516 113.55359731 738.65741895 110.86877537 754.90373039 C110.31353216 758.26372433 109.76114095 761.62418505 109.20868492 764.98463821 C108.84754315 767.17147877 108.48123845 769.35740429 108.11445618 771.54330444 C106.97315732 778.4302801 106.01794881 785.29786679 105.2878418 792.23925781 C104.24073824 802.1757394 102.70903577 812.01784164 101.13671875 821.8828125 C100.8349491 823.79494148 100.53351419 825.70712331 100.23239136 827.61935425 C99.60449527 831.60144837 98.97400319 835.58311863 98.34130859 839.56445312 C97.54222848 844.59284305 96.74755636 849.62191594 95.95453262 854.65126419 C93.297682 871.49992961 90.63656851 888.34845006 87.87109375 905.1796875 C87.71601349 906.13569855 87.56093323 907.09170959 87.40115356 908.07669067 C86.37207134 914.26366981 86.37207134 914.26366981 85.25390625 916.5 C6.71390625 916.5 -71.82609375 916.5 -152.74609375 916.5 C-152.74609375 1152.78 -152.74609375 1389.06 -152.74609375 1632.5 C-157.74672304 1634.16687643 -161.90942487 1634.95608637 -167.05859375 1635.375 C-174.75054657 1636.06648486 -182.40629246 1636.94031305 -190.06713867 1637.9152832 C-203.77209118 1639.65841121 -217.4738278 1641.08943358 -231.24609375 1642.1875 C-232.00179657 1642.24807587 -232.75749939 1642.30865173 -233.53610229 1642.37106323 C-249.90519511 1643.67114123 -266.26846668 1644.62057186 -282.68359375 1645.0625 C-283.44486572 1645.08301422 -284.2061377 1645.10352844 -284.99047852 1645.12466431 C-290.24207125 1645.26336993 -295.49391347 1645.38593677 -300.74609375 1645.5 C-301.83937988 1645.52481445 -302.93266602 1645.54962891 -304.05908203 1645.57519531 C-349.70065505 1646.46938519 -395.53331101 1643.04688923 -440.77197266 1637.21362305 C-449.17083171 1636.1359235 -457.50627888 1635.20096515 -465.96533203 1634.73291016 C-468.74609375 1634.5 -468.74609375 1634.5 -472.74609375 1633.5 C-472.74609375 1396.89 -472.74609375 1160.28 -472.74609375 916.5 C-558.87609375 916.5 -645.00609375 916.5 -733.74609375 916.5 C-733.74609375 818.82 -733.74609375 721.14 -733.74609375 620.5 C-647.94609375 620.5 -562.14609375 620.5 -473.74609375 620.5 C-473.45688726 536.92567643 -473.45688726 536.92567643 -473.17797852 453.35131836 C-473.11901855 437.16906738 -473.11901855 437.16906738 -473.0901947 429.58790588 C-473.07043456 424.30523665 -473.0532413 419.02256655 -473.03782654 413.73988342 C-473.0181215 406.99031841 -472.99348424 400.24078787 -472.96578777 393.49125016 C-472.95641709 391.02115634 -472.9486201 388.55105589 -472.94262421 386.08095157 C-472.91448249 374.80946001 -472.87518302 363.58874397 -471.9713583 352.34877872 C-471.77345377 349.84600487 -471.65691073 347.3648252 -471.60546875 344.85546875 C-470.81948575 310.76649493 -462.54077207 276.84771681 -452.62988281 244.41308594 C-451.7088566 241.37726141 -450.8152735 238.33426537 -449.92578125 235.2890625 C-447.10477938 225.70160691 -444.27437613 216.4408259 -439.74609375 207.5 C-438.86576883 205.58577323 -437.99127425 203.66885956 -437.12109375 201.75 C-436.3177011 200.02728209 -435.5142021 198.30461339 -434.70947266 196.58251953 C-434.01402647 195.07918554 -433.32726999 193.5718211 -432.64599609 192.06201172 C-427.43129697 180.51078514 -421.77511974 169.44620077 -415.05859375 158.6875 C-414.45345947 157.71643311 -413.8483252 156.74536621 -413.22485352 155.74487305 C-409.61679871 150.08777534 -405.73293539 144.8108419 -401.4465332 139.64819336 C-399.96018521 137.77046529 -398.76494928 135.97074559 -397.62109375 133.875 C-394.163339 127.65104144 -389.90152317 122.40394506 -384.74609375 117.5 C-380.77322027 113.70330716 -377.50634736 110.29412469 -374.74609375 105.5 C-374.08609375 105.5 -373.42609375 105.5 -372.74609375 105.5 C-372.40578125 104.63375 -372.40578125 104.63375 -372.05859375 103.75 C-370.39761153 100.90260191 -368.43084814 99.37932807 -365.74609375 97.5 C-365.08609375 97.5 -364.42609375 97.5 -363.74609375 97.5 C-363.08609375 96.18 -362.42609375 94.86 -361.74609375 93.5 C-361.08609375 93.5 -360.42609375 93.5 -359.74609375 93.5 C-359.43671875 92.6646875 -359.43671875 92.6646875 -359.12109375 91.8125 C-357.57417393 89.21086212 -355.67638818 87.65062053 -353.3203125 85.78515625 C-351.52912733 84.36685045 -351.52912733 84.36685045 -349.24609375 82 C-341.22996472 73.98387097 -341.22996472 73.98387097 -335.74609375 73.5 C-335.74609375 72.84 -335.74609375 72.18 -335.74609375 71.5 C-330.33432904 67.5 -330.33432904 67.5 -327.74609375 67.5 C-327.47152344 66.66275391 -327.47152344 66.66275391 -327.19140625 65.80859375 C-325.06201005 62.40731495 -321.95185891 60.65556614 -318.62109375 58.5625 C-317.88189697 58.09158936 -317.1427002 57.62067871 -316.38110352 57.13549805 C-297.30624813 45.19933662 -274.77628143 31.15381644 -252.9128418 25.14306641 C-247.94101483 23.66748418 -243.07418091 21.84695398 -238.18359375 20.125 C-229.09898562 16.95713395 -220.06542126 13.90720637 -210.74609375 11.5 C-209.56402344 11.18804687 -208.38195313 10.87609375 -207.1640625 10.5546875 C-203.03431844 9.49191649 -198.89484022 8.48528403 -194.74609375 7.5 C-193.45155273 7.18796631 -193.45155273 7.18796631 -192.13085938 6.86962891 C-179.35961021 3.82061675 -166.88367183 1.74894176 -153.79931641 0.75341797 C-150.32182482 0.46478561 -146.85368998 0.11339158 -143.3828125 -0.24609375 C-95.64810745 -5.17865031 -47.77941075 -3.81051292 0 0 Z " fill="#FEFEFE" transform="translate(2233.74609375,464.5)"/>
</svg>
